{"title":"June 2015 1080p BluRay H264 AAC-RARBG","uid":12591815,"size":1711154797,"categoryP":"video","categoryS":"hd___movies","magnet":"?xt=urn:btih:74934fb7c74c4132b5f67be63cb718cc9075744f&amp;dn=June+2015+1080p+BluRay+H264+AAC-RARBG+&amp;tr=udp%3A%2F%2Ftracker.leechers-paradise.org%3A6969&amp;tr=udp%3A%2F%2Fzer0day.ch%3A1337&amp;tr=udp%3A%2F%2Fopen.demonii.com%3A1337&amp;tr=udp%3A%2F%2Ftracker.coppersurfer.tk%3A6969&amp;tr=udp%3A%2F%2Fexodus.desync.com%3A6969","seeders":0,"leechers":0,"uploader":"TheRival","files":4,"time":1445111440,"description":"Screens: \nhttp://extraimago.com/image/M2H \nhttp://extraimago.com/image/M2o \nhttp://extraimago.com/image/M2t \nhttp://extraimago.com/image/M2x \nhttp://extraimago.com/image/M2V\r\n\r\nVideo\r\nID                                       : 1\r\nFormat                                   : AVC\r\nFormat/Info                              : Advanced Video Codec\r\nFormat profile                           :   \r\nFormat settings, CABAC                   : Yes\r\nFormat settings, ReFrames                : 4 frames\r\nCodec ID                                 : avc1\r\nCodec ID/Info                            : Advanced Video Coding\r\nDuration                                 : 1h 23mn\r\nBit rate                                 : 2 500 Kbps\r\nWidth                                    : 1 920 pixels\r\nHeight                                   : 808 pixels\r\nDisplay aspect ratio                     : 2.40:1\r\nFrame rate mode                          : Constant\r\nFrame rate                               : 23.976 fps\r\nColor space                              : YUV\r\nChroma subsampling                       : 4:2:0\r\nBit depth                                : 8 bits\r\nScan type                                : Progressive\r\nBits/(Pixel*Frame)                       : 0.067\r\nStream size                              : 1.46 GiB (92%)\r\nWriting library                          : x264 core 148 r2597M e86f3a1\r\nEncoding settings                        : cabac=1 / ref=4 / deblock=1:-1:-1 / analyse=0x3:0x113 / me=umh / subme=9 / psy=1 / psy_rd=1.00:0.15 / mixed_ref=1 / me_range=24 / chroma_me=1 / trellis=2 / 8x8dct=1 / cqm=0 / deadzone=21,11 / fast_pskip=1 / chroma_qp_offset=-3 / threads=32 / lookahead_threads=4 / sliced_threads=0 / nr=0 / decimate=1 / interlaced=0 / bluray_compat=0 / constrained_intra=0 / bframes=3 / b_pyramid=2 / b_adapt=1 / b_bias=0 / direct=1 / weightb=1 / open_gop=0 / weightp=2 / keyint=250 / keyint_min=25 / scenecut=40 / intra_refresh=0 / rc_lookahead=50 / rc=2pass / mbtree=1 / bitrate=2500 / ratetol=1.0 / qcomp=0.60 / qpmin=0 / qpmax=69 / qpstep=4 / cplxblur=20.0 / qblur=0.5 / vbv_maxrate=31250 / vbv_bufsize=31250 / nal_hrd=none / filler=0 / ip_ratio=1.40 / aq=3:1.00\r\nEncoded date                             : UTC 1904-01-01 00:00:00\r\nTagged date                              : UTC 1904-01-01 00:00:00\r\n\r\nAudio\r\nID                                       : 2\r\nFormat                                   : AAC\r\nFormat/Info                              : Advanced Audio Codec\r\nFormat profile                           : LC\r\nCodec ID                                 : 40\r\nDuration                                 : 1h 23mn\r\nBit rate mode                            : Constant\r\nBit rate                                 : 224 Kbps\r\nChannel(s)                               : 2 channels\r\nChannel(s)_Original                      : 6 channels\r\nChannel positions                        : Front: L C R, Side: L R, LFE\r\nSampling rate                            : 48.0 KHz\r\nCompression mode                         : Lossy\r\nStream size                              : 134 MiB (8%)\r\nLanguage                                 : English\r\nEncoded date                             : UTC 1904-01-01 00:00:00\r\nTagged date                              : UTC 1904-01-01 00:00:00","torrent":{"xt":"urn:btih:74934fb7c74c4132b5f67be63cb718cc9075744f","amp;dn":"June+2015+1080p+BluRay+H264+AAC-RARBG+","amp;tr":["udp%3A%2F%2Ftracker.leechers-paradise.org%3A6969","udp%3A%2F%2Fzer0day.ch%3A1337","udp%3A%2F%2Fopen.demonii.com%3A1337","udp%3A%2F%2Ftracker.coppersurfer.tk%3A6969","udp%3A%2F%2Fexodus.desync.com%3A6969"],"infoHash":"74934fb7c74c4132b5f67be63cb718cc9075744f","infoHashBuffer":{"type":"Buffer","data":[116,147,79,183,199,76,65,50,181,246,123,230,60,183,24,204,144,117,116,79]},"announce":[],"urlList":[]}}